<svg width="83" height="31" viewBox="0 0 83 31" fill="none" xmlns="http://www.w3.org/2000/svg">
<path d="M6.00804 28.1258C6.00527 28.9276 5.66764 29.6489 5.128 30.1594H5.12523C4.57175 30.681 3.82455 31 3.00263 31C2.18071 31 1.43075 30.6782 0.8745 30.1566L0.877267 30.1594C0.337623 29.6489 0 28.9276 0 28.1286C0 27.3296 0.337624 26.6055 0.880035 26.0978C1.43352 25.5762 2.18348 25.2572 3.0054 25.2572C3.82732 25.2572 4.57452 25.5762 5.13077 26.1006L5.128 26.0978C5.66764 26.6083 6.00527 27.3296 6.00804 28.1314V28.1258ZM36.1063 30.5284H30.7182L16.5325 8.08985C16.2059 7.58493 15.9043 7.00233 15.6635 6.38921L15.6386 6.32262H15.5141C15.6275 7.33524 15.6912 8.50599 15.6912 9.69339C15.6912 9.98192 15.6884 10.2704 15.6801 10.559V10.5174V30.5284H10.9174V0.00277277H16.6542L30.3667 21.9142C30.9451 22.8186 31.3187 23.4456 31.4848 23.7868H31.5678C31.4294 22.7492 31.3519 21.5507 31.3519 20.3328C31.3519 20.1026 31.3547 19.8751 31.3602 19.6448V19.6781V0H36.1063V30.5284ZM59.3027 30.5284H42.6291V0.00277277H58.6413V4.30293H47.5578V12.9504H57.7696V17.2284H47.5578V26.256H59.3027V30.5284ZM83 4.30293H74.4653V30.5311H69.5366V4.30293H61.0213V0.00277277H82.9972L83 4.30293Z" fill="black"/>
</svg>
