<svg width="66" height="66" viewBox="0 0 66 66" fill="none" xmlns="http://www.w3.org/2000/svg">
<g clip-path="url(#clip0_224_205)">
<path d="M0 57.4899C0 62.1904 3.81009 66 8.51007 66H57.4899C62.1904 66 66 62.1899 66 57.4899V8.51007C66 3.80957 62.1899 0 57.4899 0H8.51007C3.80957 0 0 3.81009 0 8.51007V57.4899Z" fill="#563D7C"/>
<path d="M27.3687 29.1942V19.8476H35.596C36.3795 19.8476 37.1351 19.9129 37.8627 20.0435C38.5902 20.1741 39.2339 20.4073 39.7935 20.7431C40.3532 21.0789 40.801 21.5453 41.1368 22.1423C41.4726 22.7393 41.6405 23.5041 41.6405 24.4369C41.6405 26.116 41.1368 27.3286 40.1294 28.0748C39.1219 28.8211 37.8347 29.1942 36.2676 29.1942H27.3687ZM18.5818 13.0195V52.9805H37.9466C39.7376 52.9805 41.4819 52.7566 43.1796 52.3089C44.8773 51.8611 46.3884 51.1709 47.713 50.2381C49.0376 49.3053 50.0916 48.102 50.8751 46.6281C51.6587 45.1543 52.0505 43.41 52.0505 41.3952C52.0505 38.8953 51.4442 36.7592 50.2315 34.9869C49.0189 33.2145 47.1813 31.9739 44.7187 31.265C46.5097 30.4068 47.8622 29.3061 48.7764 27.9629C49.6905 26.6197 50.1476 24.9407 50.1476 22.9258C50.1476 21.0602 49.8398 19.4931 49.2241 18.2245C48.6085 16.9559 47.741 15.9392 46.6216 15.1743C45.5022 14.4094 44.159 13.859 42.5919 13.5232C41.0248 13.1874 39.2898 13.0195 37.3869 13.0195H18.5818ZM27.3687 46.1524V35.1827H36.9392C38.8421 35.1827 40.3719 35.6212 41.5285 36.498C42.6852 37.3748 43.2635 38.8393 43.2635 40.8914C43.2635 41.9362 43.0863 42.7943 42.7318 43.466C42.3774 44.1376 41.9017 44.6693 41.3047 45.061C40.7077 45.4528 40.0174 45.7327 39.2339 45.9006C38.4503 46.0685 37.6295 46.1524 36.7713 46.1524H27.3687Z" fill="white"/>
</g>
<defs>
<clipPath id="clip0_224_205">
<rect width="66" height="66" fill="white"/>
</clipPath>
</defs>
</svg>
