<svg width="27" height="24" viewBox="0 0 27 24" fill="none" xmlns="http://www.w3.org/2000/svg">
<path d="M23.6586 15H9.91744L10.2242 16.5H22.8063C23.5283 16.5 24.0633 17.1704 23.9033 17.8743L23.6447 19.0123C24.5209 19.4376 25.125 20.3357 25.125 21.375C25.125 22.8376 23.9288 24.0208 22.4614 23.9997C21.0634 23.9796 19.9137 22.8451 19.876 21.4475C19.8554 20.6841 20.1612 19.9921 20.6636 19.5H10.8364C11.3228 19.9765 11.625 20.6403 11.625 21.375C11.625 22.8662 10.3815 24.0671 8.87485 23.9971C7.53703 23.935 6.44902 22.854 6.37871 21.5166C6.32442 20.4838 6.86789 19.5734 7.6936 19.0985L4.40077 3H1.125C0.503672 3 0 2.49633 0 1.875V1.125C0 0.503672 0.503672 0 1.125 0H5.93105C6.46547 0 6.92611 0.375984 7.03322 0.899531L7.46288 3H25.8745C26.5965 3 27.1315 3.67036 26.9716 4.37433L24.7556 14.1243C24.6392 14.6365 24.1839 15 23.6586 15ZM19.125 7.875H16.875V6C16.875 5.58576 16.5392 5.25 16.125 5.25H15.375C14.9608 5.25 14.625 5.58576 14.625 6V7.875H12.375C11.9608 7.875 11.625 8.21076 11.625 8.625V9.375C11.625 9.78923 11.9608 10.125 12.375 10.125H14.625V12C14.625 12.4142 14.9608 12.75 15.375 12.75H16.125C16.5392 12.75 16.875 12.4142 16.875 12V10.125H19.125C19.5392 10.125 19.875 9.78923 19.875 9.375V8.625C19.875 8.21076 19.5392 7.875 19.125 7.875Z" fill="black"/>
</svg>
