<svg width="37" height="37" viewBox="0 0 37 37" fill="none" xmlns="http://www.w3.org/2000/svg">
<path d="M18.3 28.95C15.45 28.95 12.75 27.825 10.725 25.8C6.525 21.6 6.525 14.85 10.725 10.725C12.75 8.7 15.45 7.575 18.3 7.575C21.15 7.575 23.85 8.7 25.875 10.725C26.475 11.325 26.475 12.3 25.875 12.975C25.275 13.575 24.3 13.575 23.625 12.975C22.2 11.55 20.325 10.8 18.3 10.8C16.275 10.8 14.4 11.55 12.975 12.975C10.05 15.9 10.05 20.7 12.975 23.625C14.4 25.05 16.275 25.8 18.3 25.8C20.325 25.8 22.2 25.05 23.625 23.625C24.225 23.025 25.2 23.025 25.875 23.625C26.475 24.225 26.475 25.2 25.875 25.875C23.775 27.9 21.15 28.95 18.3 28.95ZM18.3 36.6C8.175 36.6 0 28.35 0 18.3C0 8.25 8.175 0 18.3 0C28.35 0 36.6 8.175 36.6 18.3C36.6 28.425 28.35 36.6 18.3 36.6ZM18.3 3.15C9.975 3.15 3.15 9.9 3.15 18.3C3.15 26.7 9.9 33.45 18.3 33.45C26.625 33.45 33.45 26.7 33.45 18.3C33.45 9.9 26.7 3.15 18.3 3.15Z" fill="black"/>
</svg>
