<svg width="76" height="76" viewBox="0 0 76 76" fill="none" xmlns="http://www.w3.org/2000/svg">
<path d="M1.58884 41.8359C-0.529612 39.7174 -0.529612 36.2827 1.58884 34.1642L34.1642 1.58884C36.2827 -0.529612 39.7174 -0.529612 41.8359 1.58884L74.4111 34.1642C76.5296 36.2827 76.5296 39.7174 74.4111 41.8359L41.8359 74.4111C39.7174 76.5296 36.2827 76.5296 34.1642 74.4111L1.58884 41.8359Z" fill="#EE513B"/>
<path d="M27.547 8.30981L24.2483 11.6086L32.7682 20.1285C32.4235 20.8679 32.231 21.6926 32.231 22.5622C32.231 25.0311 33.7822 27.1377 35.9632 27.9604V48.8023C33.7822 49.625 32.231 51.7316 32.231 54.2005C32.231 57.386 34.8134 59.9684 37.9989 59.9684C41.1844 59.9684 43.7667 57.386 43.7667 54.2005C43.7667 51.9623 42.4918 50.0216 40.6285 49.0656V27.9889L48.7727 36.1331C48.4448 36.8576 48.2624 37.6618 48.2624 38.5087C48.2624 41.6942 50.8448 44.2765 54.0303 44.2765C57.2158 44.2765 59.7981 41.6942 59.7981 38.5087C59.7981 35.3232 57.2158 32.7408 54.0303 32.7408C53.4111 32.7408 52.8151 32.8382 52.2559 33.0187L43.5091 24.2719C43.6766 23.7318 43.7667 23.1575 43.7667 22.5622C43.7667 19.3767 41.1844 16.7943 37.9989 16.7943C37.4036 16.7943 36.8296 16.8845 36.2891 17.0519L27.547 8.30981Z" fill="white"/>
</svg>
