<svg width="66" height="65" viewBox="0 0 66 65" fill="none" xmlns="http://www.w3.org/2000/svg">
<path d="M33.0827 0.000237132C25.2342 -0.0296787 17.6327 2.77186 11.6459 7.90081C5.65908 13.0298 1.67998 20.1494 0.424486 27.9789C-0.831011 35.8083 0.719517 43.8335 4.79711 50.6106C8.87469 57.3878 15.2117 62.472 22.6679 64.9484C24.3158 65.2149 24.8431 64.1824 24.8431 63.2831V57.6542C15.7137 59.6526 13.7691 53.291 13.7691 53.291C13.1536 51.2224 11.8193 49.4482 10.0119 48.295C7.01267 46.23 10.2426 46.2966 10.2426 46.2966C11.2772 46.4319 12.2681 46.8017 13.1413 47.3785C14.0145 47.9552 14.7474 48.724 15.2852 49.6273C16.2007 51.2724 17.7219 52.4857 19.5179 53.0034C21.3139 53.5211 23.2396 53.3013 24.8761 52.3918C25.0263 50.7033 25.7616 49.1227 26.9525 47.9287C19.8994 47.1959 12.0553 44.3315 12.0553 31.6417C11.96 28.3158 13.1409 25.0816 15.3511 22.6155C14.3477 19.7493 14.4656 16.6039 15.6807 13.8225C15.6807 13.8225 18.4492 12.9233 24.7443 17.1532C30.1415 15.687 35.8262 15.687 41.2234 17.1532C47.5185 12.8566 50.287 13.8225 50.287 13.8225C51.5021 16.6039 51.62 19.7493 50.6165 22.6155C52.8267 25.0816 54.0077 28.3158 53.9124 31.6417C53.9124 44.3648 46.2001 47.1626 38.8504 47.9953C39.642 48.7993 40.2544 49.765 40.6466 50.8277C41.0388 51.8904 41.2017 53.0255 41.1245 54.157V63.2831C41.1245 64.1824 41.6519 65.2482 43.3328 64.9484C50.7754 62.4763 57.1032 57.4058 61.1817 50.6461C65.2601 43.8864 66.8225 35.8796 65.5886 28.0613C64.3547 20.2429 60.4053 13.1245 54.4485 7.98217C48.4917 2.83989 40.917 0.010114 33.0827 0.000237132Z" fill="black"/>
</svg>
