<svg width="62" height="83" viewBox="0 0 62 83" fill="none" xmlns="http://www.w3.org/2000/svg">
<path d="M31.1284 21.8929C48.1476 8.627 39.4129 0 39.4129 0C40.7128 13.7141 25.3502 16.9523 21.2321 26.3764C18.4223 32.807 23.1565 38.4376 31.1227 45.5343C30.4185 43.9625 29.3322 42.4353 28.2327 40.8892C24.482 35.6156 20.5749 30.1217 31.1284 21.8929Z" fill="#E76F00"/>
<path d="M33.8455 48.4434C33.8455 48.4434 38.9657 44.2958 34.9109 39.6864C21.1655 24.0489 49.9443 16.9523 49.9443 16.9523C32.3735 25.4511 34.9967 30.4957 39.4131 36.6242C44.1416 43.1958 33.8455 48.4434 33.8455 48.4434Z" fill="#E76F00"/>
<path d="M48.9205 60.8121C64.6925 52.7201 57.4003 44.944 52.3103 45.9916C51.0626 46.2479 50.5064 46.4702 50.5064 46.4702C50.5064 46.4702 50.9696 45.7538 51.8541 45.4436C61.9237 41.9485 69.6677 55.7524 48.6035 61.2198C48.6035 61.2198 48.8476 61.0045 48.9205 60.8121Z" fill="#5382A1"/>
<path d="M16.1019 50.5701C6.23386 49.2691 21.5127 45.6861 21.5127 45.6861C21.5127 45.6861 15.5793 45.2911 8.28193 48.7737C-0.346791 52.8949 29.6259 54.7692 45.1411 50.7403C46.7542 49.6527 48.9836 48.7102 48.9836 48.7102C48.9836 48.7102 42.6345 49.8296 36.3115 50.3564C28.5747 50.9963 20.2685 51.1211 16.1019 50.5701Z" fill="#5382A1"/>
<path d="M19.8565 58.2966C14.3536 57.7348 17.9567 55.1013 17.9567 55.1013C3.71735 59.7675 25.8793 65.059 45.7764 59.3143C43.6614 58.5782 42.3165 57.2318 42.3165 57.2318C32.5921 59.0806 26.9726 59.0215 19.8565 58.2966Z" fill="#5382A1"/>
<path d="M22.2542 66.6571C16.7556 66.033 19.9679 64.1886 19.9679 64.1886C7.04208 67.7545 27.83 75.1215 44.2869 68.1578C41.5915 67.1229 39.6615 65.9282 39.6615 65.9282C32.3204 67.2998 28.9156 67.4074 22.2542 66.6571Z" fill="#5382A1"/>
<path d="M56.675 70.91C56.675 70.91 59.0521 72.8439 54.0567 74.34C44.5576 77.1812 14.5207 78.0392 6.17659 74.4534C3.17709 73.165 8.80201 71.3772 10.5714 71.0019C12.4167 70.6068 13.4712 70.6805 13.4712 70.6805C10.1354 68.3604 -8.08973 75.2361 4.2137 77.2053C37.767 82.5778 65.3782 74.7859 56.675 70.91Z" fill="#5382A1"/>
<path d="M62 75.1355C61.4495 82.2081 38.2015 83.6959 23.0624 82.7391C13.1862 82.1137 11.2068 80.551 11.1779 80.5282C20.6302 82.0668 36.5668 82.3469 49.4884 79.9459C60.9416 77.8167 62 75.1355 62 75.1355Z" fill="#5382A1"/>
</svg>
