<svg width="66" height="66" viewBox="0 0 66 66" fill="none" xmlns="http://www.w3.org/2000/svg">
<path d="M56.1 0H9.9C4.43238 0 0 4.43238 0 9.9V56.1C0 61.5676 4.43238 66 9.9 66H56.1C61.5676 66 66 61.5676 66 56.1V9.9C66 4.43238 61.5676 0 56.1 0Z" fill="#F7DF1E"/>
<path d="M41.7656 47.6953C43.0547 49.8867 44.8594 51.4336 47.8242 51.4336C50.4023 51.4336 52.0781 50.1445 52.0781 48.3398C52.0781 46.2773 50.4023 45.5039 47.5664 44.2148L46.0195 43.5703C41.5078 41.6367 38.543 39.3164 38.543 34.2891C38.543 29.6484 42.0234 26.0391 47.5664 26.0391C51.5625 26.0391 54.3984 27.457 56.332 31.0664L51.5625 34.1602C50.5312 32.2266 49.3711 31.4531 47.5664 31.4531C45.7617 31.4531 44.6016 32.6133 44.6016 34.1602C44.6016 35.9648 45.7617 36.7383 48.4688 37.8984L50.0156 38.543C55.3008 40.8633 58.2656 43.0547 58.2656 48.3398C58.2656 53.8828 53.8828 56.9766 47.9531 56.9766C42.1523 56.9766 38.4141 54.2695 36.6094 50.6602L41.7656 47.6953ZM19.8516 48.2109C20.8828 49.8867 21.6562 51.4336 23.8477 51.4336C25.9102 51.4336 27.1992 50.6602 27.1992 47.5664V26.168H33.3867V47.3086C33.3867 53.7539 29.6484 56.5898 24.1055 56.5898C19.0781 56.5898 16.2422 54.0117 14.8242 50.918L19.8516 48.2109Z" fill="black"/>
</svg>
