<svg width="60" height="56" viewBox="0 0 60 56" fill="none" xmlns="http://www.w3.org/2000/svg">
<path d="M54.2505 21.3123C53.1152 21.3123 49.1602 21.3123 43.4034 21.3123C38.7745 21.3123 37.8846 20.5323 37.8846 19.2854C37.8846 17.8608 40.199 15.3706 40.7337 14.4788C41.2685 13.5889 44.6504 10.564 45.3627 6.11266C46.0749 1.66129 40.7337 -1.54296 38.9539 1.48375C37.8973 3.28 35.2149 8.60477 32.0105 10.9192C26.0669 15.2131 21.1505 24.5588 14.9579 24.5588V47.912C20.061 47.912 31.6223 53.5846 35.7184 54.4049C40.3564 55.3333 46.4172 57.3822 49.6344 53.0133C51.6173 50.3199 54.7246 39.8627 57.0574 32.4469C62.9737 26.7633 58.8887 21.3123 54.2505 21.3123Z" fill="black"/>
<path d="M0.00012207 29.1016V49.3988C0.00012207 51.9074 2.03262 53.9417 4.54114 53.9417H7.1229C8.79469 53.9417 10.1515 52.5867 10.1515 50.9131V24.5588H4.54114C2.03262 24.5588 0.00012207 26.5931 0.00012207 29.1016Z" fill="black"/>
</svg>
