<svg width="41" height="43" viewBox="0 0 41 43" fill="none" xmlns="http://www.w3.org/2000/svg">
<path d="M38.7222 0H2.27778C1.67367 0 1.09431 0.251686 0.667146 0.699689C0.239979 1.14769 0 1.75532 0 2.38889V40.6111C0 41.2447 0.239979 41.8523 0.667146 42.3003C1.09431 42.7483 1.67367 43 2.27778 43H38.7222C39.3263 43 39.9057 42.7483 40.3329 42.3003C40.76 41.8523 41 41.2447 41 40.6111V2.38889C41 1.75532 40.76 1.14769 40.3329 0.699689C39.9057 0.251686 39.3263 0 38.7222 0ZM12.1611 36.6384H6.07483V16.1178H12.1611V36.6384ZM9.11794 13.3157C8.18279 13.3157 7.28594 12.9261 6.62469 12.2325C5.96343 11.539 5.59194 10.5984 5.59194 9.61767C5.59194 8.6369 5.96343 7.6963 6.62469 7.00279C7.28594 6.30928 8.18279 5.91967 9.11794 5.91967C10.0531 5.91967 10.9499 6.30928 11.6112 7.00279C12.2725 7.6963 12.6439 8.6369 12.6439 9.61767C12.6439 10.5984 12.2725 11.539 11.6112 12.2325C10.9499 12.9261 10.0531 13.3157 9.11794 13.3157ZM34.9366 36.6384H28.8572V26.66C28.8572 24.2807 28.8162 21.2205 25.6956 21.2205C22.5295 21.2205 22.0489 23.8148 22.0489 26.4928V36.6408H15.9741V16.1202H21.8052V18.9248H21.8894C22.6981 17.3123 24.6843 15.6114 27.6386 15.6114C33.7977 15.6114 34.9343 19.8588 34.9343 25.3867L34.9366 36.6384Z" fill="#A9A9A9"/>
</svg>
