<svg width="42" height="53" viewBox="0 0 42 53" fill="none" xmlns="http://www.w3.org/2000/svg">
<path d="M37.5 20.625C37.5 16.1495 35.7221 11.8572 32.5574 8.69257C29.3927 5.5279 25.1005 3.75 20.625 3.75C16.1495 3.75 11.8572 5.5279 8.69257 8.69257C5.5279 11.8572 3.75 16.1495 3.75 20.625C3.75 27.5475 9.28875 36.57 20.625 47.3775C31.9613 36.57 37.5 27.5475 37.5 20.625ZM20.625 52.5C6.87375 40.0013 0 29.3737 0 20.625C0 15.1549 2.17299 9.90886 6.04092 6.04092C9.90886 2.17299 15.1549 0 20.625 0C26.0951 0 31.3411 2.17299 35.2091 6.04092C39.077 9.90886 41.25 15.1549 41.25 20.625C41.25 29.3737 34.3763 40.0013 20.625 52.5Z" fill="black"/>
<path d="M20.625 26.25C22.1168 26.25 23.5476 25.6574 24.6025 24.6025C25.6574 23.5476 26.25 22.1168 26.25 20.625C26.25 19.1332 25.6574 17.7024 24.6025 16.6475C23.5476 15.5926 22.1168 15 20.625 15C19.1332 15 17.7024 15.5926 16.6475 16.6475C15.5926 17.7024 15 19.1332 15 20.625C15 22.1168 15.5926 23.5476 16.6475 24.6025C17.7024 25.6574 19.1332 26.25 20.625 26.25ZM20.625 30C18.1386 30 15.754 29.0123 13.9959 27.2541C12.2377 25.496 11.25 23.1114 11.25 20.625C11.25 18.1386 12.2377 15.754 13.9959 13.9959C15.754 12.2377 18.1386 11.25 20.625 11.25C23.1114 11.25 25.496 12.2377 27.2541 13.9959C29.0123 15.754 30 18.1386 30 20.625C30 23.1114 29.0123 25.496 27.2541 27.2541C25.496 29.0123 23.1114 30 20.625 30Z" fill="black"/>
</svg>
