<svg width="81" height="55" viewBox="0 0 81 55" fill="none" xmlns="http://www.w3.org/2000/svg">
<path d="M19.4738 50.1052H16.3484C16.2378 44.8307 15.9334 39.8719 15.4358 35.2253H15.408L10.6495 50.1052H8.2699L3.53976 35.2253H3.51258C3.16168 39.6865 2.94064 44.6465 2.84884 50.1052H0C0.183601 43.4672 0.64502 37.2439 1.38244 31.4349H5.25619L9.76468 45.1537H9.79246L14.3287 31.4349H18.0352C18.8469 38.2391 19.3264 44.4629 19.4738 50.1052ZM33.0283 36.3303C31.7557 43.2347 30.0768 48.2514 27.9931 51.383C26.3697 53.7935 24.5911 55 22.6542 55C22.1378 55 21.5007 54.8442 20.7457 54.5351V52.8703C21.1147 52.9234 21.5478 52.9536 22.0454 52.9536C22.9501 52.9536 23.6773 52.7048 24.2317 52.206C24.8949 51.5986 25.2264 50.9156 25.2264 50.1602C25.2264 49.6421 24.9679 48.583 24.4522 46.9791L21.0223 36.3297H24.0928L26.5545 44.2944C27.1077 46.103 27.3384 47.3656 27.246 48.0848C28.5922 44.4901 29.5326 40.5705 30.0683 36.3291H33.0283V36.3303Z" fill="#5D87A1"/>
<path d="M74.6314 50.1054H65.7534V31.4351H68.7399V47.8072H74.6314V50.1054ZM63.4293 50.5565L59.9965 48.8627C60.3009 48.6127 60.592 48.3422 60.8541 48.0288C62.3132 46.3151 63.041 43.7807 63.041 40.424C63.041 34.2472 60.6168 31.1573 55.7664 31.1573C53.3881 31.1573 51.5327 31.9411 50.2058 33.5093C48.7479 35.2242 48.0201 37.7495 48.0201 41.0882C48.0201 44.3701 48.6652 46.7776 49.9558 48.3048C51.1365 49.6882 52.9164 50.3808 55.2965 50.3808C56.1843 50.3808 56.9991 50.2721 57.7413 50.0529L62.2106 52.6543L63.4293 50.5565ZM52.3088 46.3694C51.5527 45.1533 51.1746 43.2004 51.1746 40.5079C51.1746 35.807 52.6029 33.4538 55.4626 33.4538C56.9574 33.4538 58.053 34.0166 58.7536 35.1397C59.5085 36.3577 59.8884 38.293 59.8884 40.9481C59.8884 45.6877 58.4588 48.0578 55.6009 48.0578C54.1056 48.0584 53.01 47.4974 52.3088 46.3694ZM46.7186 44.9305C46.7186 46.5138 46.1376 47.8126 44.9768 48.8301C43.8148 49.8434 42.2566 50.3512 40.3041 50.3512C38.4777 50.3512 36.7069 49.7679 34.9929 48.6073L35.7956 47.0041C37.2704 47.7426 38.6058 48.1097 39.8046 48.1097C40.9298 48.1097 41.8091 47.8603 42.4469 47.3658C43.0841 46.8694 43.4639 46.1732 43.4639 45.2928C43.4639 44.1835 42.6903 43.2355 41.271 42.4414C39.9622 41.7228 37.3447 40.2205 37.3447 40.2205C35.926 39.1867 35.2158 38.0768 35.2158 36.2484C35.2158 34.7351 35.7454 33.5136 36.8054 32.5842C37.8665 31.6513 39.2357 31.1863 40.9141 31.1863C42.6474 31.1863 44.2231 31.6507 45.6424 32.5697L44.9225 34.1736C43.7085 33.6579 42.5103 33.4 41.3284 33.4C40.3711 33.4 39.6319 33.6301 39.1179 34.092C38.5997 34.5522 38.2802 35.1409 38.2802 35.8631C38.2802 36.9669 39.0702 37.9271 40.5281 38.7368C41.8544 39.4566 44.5372 40.9849 44.5372 40.9849C45.9921 42.0169 46.7186 43.1165 46.7186 44.9305Z" fill="#F8981D"/>
<path d="M78.3806 25.1816C76.5748 25.1357 75.1767 25.3175 74.0032 25.8138C73.6644 25.9491 73.1256 25.9491 73.0785 26.3772C73.2615 26.5584 73.2827 26.8506 73.4415 27.1006C73.7121 27.5517 74.1838 28.1586 74.6144 28.475C75.0873 28.8373 75.562 29.196 76.0596 29.5118C76.9372 30.0546 77.9319 30.3704 78.7871 30.9115C79.2853 31.2261 79.7806 31.6331 80.2794 31.9718C80.5246 32.1524 80.6817 32.4453 81 32.5582V32.4893C80.8405 32.2864 80.7952 31.993 80.6388 31.7671L79.9612 31.1138C79.3065 30.2346 78.493 29.4671 77.6154 28.8367C76.8931 28.3391 75.3132 27.6628 75.0202 26.8307L74.9743 26.7848C75.4708 26.7383 76.0596 26.5584 76.5313 26.4201C77.2989 26.2178 77.9989 26.2637 78.7865 26.0614C79.1488 25.9708 79.5082 25.8573 79.8718 25.7456V25.5421C79.4635 25.1357 79.1724 24.5959 78.743 24.2118C77.5943 23.2197 76.3284 22.2493 75.0202 21.4371C74.3197 20.9849 73.4186 20.6938 72.6727 20.3092C72.4039 20.1733 71.951 20.1063 71.7927 19.8804C71.3881 19.3841 71.1604 18.7307 70.8669 18.1432C70.2146 16.9035 69.581 15.5279 69.0182 14.217C68.6111 13.3378 68.3635 12.4598 67.867 11.6464C65.5418 7.81197 63.0167 5.48958 59.1357 3.21006C58.3017 2.73544 57.3094 2.53315 56.2494 2.28436L54.5566 2.195C54.1954 2.03679 53.8336 1.60745 53.5184 1.40456C52.2307 0.592992 48.9157 -1.16601 47.9687 1.15638C47.3587 2.62433 48.871 4.06752 49.3904 4.81206C49.7739 5.32896 50.2709 5.9171 50.5391 6.50404C50.6979 6.88748 50.7426 7.29447 50.9015 7.69965C51.2626 8.69238 51.6002 9.79681 52.0749 10.7231C52.3225 11.1953 52.5925 11.6917 52.909 12.1192C53.0902 12.3692 53.4054 12.4797 53.4743 12.8873C53.1596 13.3366 53.1349 14.0147 52.9543 14.5787C52.1426 17.1275 52.4596 20.285 53.6102 22.1581C53.9701 22.7221 54.8289 23.9636 55.9777 23.4878C56.9947 23.082 56.7694 21.7964 57.0618 20.6691C57.1288 20.3967 57.0847 20.218 57.22 20.0392V20.0833C57.5346 20.7143 57.8523 21.3224 58.144 21.9552C58.844 23.0597 60.0628 24.2106 61.078 24.9757C61.6186 25.3839 62.0468 26.0819 62.7238 26.3313V26.2637H62.6791C62.542 26.0614 62.3415 25.9708 62.1615 25.8138C61.7545 25.4074 61.3039 24.9111 60.988 24.4606C60.0422 23.1968 59.2052 21.7976 58.4623 20.3539C58.0987 19.6534 57.7853 18.8877 57.4924 18.1885C57.3559 17.9185 57.3559 17.5115 57.1294 17.3757C56.79 17.8714 56.2953 18.3008 56.0477 18.9082C55.6183 19.8798 55.5736 21.0748 55.4142 22.3176L55.3254 22.361C54.6067 22.1805 54.3567 21.4371 54.0837 20.8061C53.4078 19.2035 53.2943 16.6311 53.8807 14.7822C54.0378 14.3093 54.7172 12.8203 54.446 12.3698C54.3102 11.938 53.8584 11.6923 53.6108 11.3523C53.3197 10.9248 53.0008 10.3837 52.7979 9.90913C52.2567 8.64648 51.9843 7.24737 51.4015 5.98534C51.1291 5.39719 50.6562 4.78851 50.2733 4.24686C49.8433 3.63819 49.3704 3.20946 49.0304 2.48786C48.9181 2.23968 48.7604 1.8339 48.941 1.56398C48.9851 1.38282 49.0769 1.31519 49.2569 1.2699C49.5492 1.02293 50.3845 1.33693 50.6774 1.47279C51.5139 1.81095 52.2132 2.12676 52.9114 2.60018C53.2273 2.82662 53.5661 3.25535 53.9713 3.36827H54.446C55.1666 3.52527 55.9789 3.41175 56.6571 3.61585C57.8523 3.99989 58.9352 4.56328 59.9064 5.17135C62.8615 7.04508 65.2984 9.70744 66.9436 12.8873C67.2136 13.4054 67.3283 13.88 67.5747 14.4205C68.05 15.5267 68.6377 16.6547 69.1094 17.7374C69.5835 18.7971 70.0352 19.8792 70.7122 20.7596C71.0499 21.233 72.4063 21.4812 73.0145 21.7294C73.4645 21.9317 74.165 22.1116 74.5709 22.3598C75.3385 22.8326 76.1031 23.3755 76.8248 23.8954C77.1842 24.1659 78.3136 24.7299 78.3806 25.1816ZM55.3665 5.57834C55.055 5.57511 54.7444 5.61328 54.443 5.69187V5.73715H54.4865C54.6683 6.09765 54.9842 6.34764 55.2094 6.66225C55.3912 7.02395 55.5489 7.38264 55.727 7.74374L55.7705 7.69905C56.0888 7.47382 56.247 7.11272 56.247 6.57107C56.1099 6.41165 56.0888 6.25586 55.9746 6.09765C55.8418 5.87181 55.5489 5.7595 55.3665 5.57834Z" fill="#5D87A1"/>
<path d="M80.5296 50.1023H80.9971V47.8149H80.2959L79.7239 49.3759L79.1025 47.8149H78.4273V50.1023H78.8687V48.362H78.8935L79.5446 50.1023H79.881L80.5296 48.362V50.1023ZM76.764 50.1023H77.2586V48.2026H77.906V47.8143H76.0894V48.2026H76.7628L76.764 50.1023Z" fill="#F8981D"/>
</svg>
