<svg width="43" height="43" viewBox="0 0 43 43" fill="none" xmlns="http://www.w3.org/2000/svg">
<path d="M31.3222 42.9999C31.8932 43.0032 32.4591 42.8928 32.9869 42.675C33.5147 42.4572 33.9939 42.1365 34.3964 41.7316L40.2223 35.9057C40.6227 35.5029 40.8474 34.958 40.8474 34.3901C40.8474 33.8222 40.6227 33.2773 40.2223 32.8745L31.6232 24.2754C31.2204 23.875 30.6756 23.6503 30.1076 23.6503C29.5397 23.6503 28.9948 23.875 28.592 24.2754L25.1524 27.6936C22.771 27.0586 20.5655 25.8897 18.7031 24.2754C17.0932 22.4101 15.9248 20.2056 15.2849 17.8261L18.7031 14.3865C19.1035 13.9837 19.3282 13.4388 19.3282 12.8709C19.3282 12.3029 19.1035 11.7581 18.7031 11.3553L10.104 2.75621C9.70121 2.35581 9.15635 2.13107 8.58841 2.13107C8.02047 2.13107 7.47561 2.35581 7.07282 2.75621L1.26844 8.60359C0.863489 9.00611 0.542771 9.48527 0.325002 10.0131C0.107233 10.5409 -0.00322628 11.1068 7.17308e-05 11.6778C0.195105 19.9378 3.49576 27.821 9.24409 33.7559C15.179 39.5042 23.0622 42.8049 31.3222 42.9999ZM8.59916 7.33522L14.1671 12.9031L11.3939 15.6763C11.1312 15.9224 10.9345 16.2304 10.8218 16.5722C10.7092 16.914 10.6841 17.2786 10.7489 17.6326C11.5524 21.2235 13.2536 24.552 15.6934 27.3066C18.4459 29.7495 21.7752 31.4511 25.3674 32.2511C25.716 32.324 26.0773 32.3091 26.4188 32.2078C26.7602 32.1064 27.0712 31.9219 27.3237 31.6706L30.0969 28.8329L35.6648 34.4008L31.3652 38.7004C24.236 38.5168 17.4336 35.6716 12.2968 30.7247C7.33705 25.5857 4.48365 18.7744 4.29961 11.6348L8.59916 7.33522ZM38.696 19.3524H42.9955C43.0512 16.7964 42.5889 14.2555 41.6363 11.8829C40.6837 9.51026 39.2606 7.3551 37.4528 5.54725C35.6449 3.7394 33.4897 2.31629 31.1171 1.3637C28.7445 0.411111 26.2036 -0.0512434 23.6476 0.00450298V4.30405C25.6423 4.23504 27.63 4.57709 29.487 5.30892C31.3439 6.04075 33.0305 7.14673 34.4419 8.5581C35.8533 9.96947 36.9592 11.6561 37.6911 13.513C38.4229 15.37 38.765 17.3577 38.696 19.3524Z" fill="black"/>
<path d="M23 13.4C27.62 13.4 29.6 15.38 29.6 20H34C34 12.916 30.084 9 23 9V13.4Z" fill="black"/>
</svg>
